<mxfile host="app.diagrams.net" modified="2020-12-29T10:32:54.183Z" agent="5.0 (Macintosh; Intel Mac OS X 10_15_2) AppleWebKit/537.36 (KHTML, like Gecko) Chrome/87.0.4280.88 Safari/537.36" etag="dIYDrQ_NrCwYkg_HSOu3" version="14.0.0" type="github">
  <diagram id="C5RBs43oDa-KdzZeNtuy" name="Page-1">
    <mxGraphModel dx="153" dy="1269" grid="1" gridSize="10" guides="1" tooltips="1" connect="1" arrows="1" fold="1" page="1" pageScale="1" pageWidth="827" pageHeight="1169" math="0" shadow="0">
      <root>
        <mxCell id="WIyWlLk6GJQsqaUBKTNV-0" />
        <mxCell id="WIyWlLk6GJQsqaUBKTNV-1" parent="WIyWlLk6GJQsqaUBKTNV-0" />
        <mxCell id="WIyWlLk6GJQsqaUBKTNV-2" value="" style="rounded=0;html=1;jettySize=auto;orthogonalLoop=1;fontSize=11;endArrow=block;endFill=0;endSize=8;strokeWidth=1;shadow=0;labelBackgroundColor=none;edgeStyle=orthogonalEdgeStyle;" parent="WIyWlLk6GJQsqaUBKTNV-1" source="WIyWlLk6GJQsqaUBKTNV-3" target="WIyWlLk6GJQsqaUBKTNV-6" edge="1">
          <mxGeometry relative="1" as="geometry" />
        </mxCell>
        <mxCell id="WIyWlLk6GJQsqaUBKTNV-3" value="Login GekkoGraph" style="rounded=1;whiteSpace=wrap;html=1;fontSize=12;glass=0;strokeWidth=1;shadow=0;arcSize=50;fillColor=#e1d5e7;strokeColor=#9673a6;" parent="WIyWlLk6GJQsqaUBKTNV-1" vertex="1">
          <mxGeometry x="160" y="-640" width="120" height="40" as="geometry" />
        </mxCell>
        <mxCell id="WIyWlLk6GJQsqaUBKTNV-4" value="" style="rounded=0;html=1;jettySize=auto;orthogonalLoop=1;fontSize=11;endArrow=block;endFill=0;endSize=8;strokeWidth=1;shadow=0;labelBackgroundColor=none;edgeStyle=orthogonalEdgeStyle;entryX=0;entryY=0.5;entryDx=0;entryDy=0;fillColor=#d5e8d4;strokeColor=#82b366;" parent="WIyWlLk6GJQsqaUBKTNV-1" source="WIyWlLk6GJQsqaUBKTNV-6" target="WIyWlLk6GJQsqaUBKTNV-12" edge="1">
          <mxGeometry y="20" relative="1" as="geometry">
            <mxPoint as="offset" />
            <mxPoint x="570.0344827586207" y="-569.9724137931034" as="targetPoint" />
            <Array as="points">
              <mxPoint x="400" y="-510" />
              <mxPoint x="540" y="-510" />
            </Array>
          </mxGeometry>
        </mxCell>
        <mxCell id="WIyWlLk6GJQsqaUBKTNV-5" value="" style="edgeStyle=orthogonalEdgeStyle;rounded=0;html=1;jettySize=auto;orthogonalLoop=1;fontSize=11;endArrow=block;endFill=0;endSize=8;strokeWidth=1;shadow=0;labelBackgroundColor=none;entryX=0;entryY=0.5;entryDx=0;entryDy=0;fillColor=#d5e8d4;strokeColor=#82b366;" parent="WIyWlLk6GJQsqaUBKTNV-1" source="WIyWlLk6GJQsqaUBKTNV-6" target="WIyWlLk6GJQsqaUBKTNV-7" edge="1">
          <mxGeometry y="10" relative="1" as="geometry">
            <mxPoint as="offset" />
            <Array as="points">
              <mxPoint x="400" y="-730" />
            </Array>
          </mxGeometry>
        </mxCell>
        <mxCell id="WIyWlLk6GJQsqaUBKTNV-6" value="Choose a search method" style="rhombus;whiteSpace=wrap;html=1;shadow=0;fontFamily=Helvetica;fontSize=12;align=center;strokeWidth=1;spacing=6;spacingTop=-4;fillColor=#d5e8d4;strokeColor=#82b366;" parent="WIyWlLk6GJQsqaUBKTNV-1" vertex="1">
          <mxGeometry x="350" y="-660" width="100" height="80" as="geometry" />
        </mxCell>
        <mxCell id="0FU5Pp-i_h0f7p2sPTCY-2" value="" style="edgeStyle=orthogonalEdgeStyle;rounded=0;orthogonalLoop=1;jettySize=auto;html=1;entryX=0;entryY=0.5;entryDx=0;entryDy=0;fillColor=#d5e8d4;strokeColor=#82b366;" parent="WIyWlLk6GJQsqaUBKTNV-1" source="WIyWlLk6GJQsqaUBKTNV-7" target="0FU5Pp-i_h0f7p2sPTCY-3" edge="1">
          <mxGeometry relative="1" as="geometry">
            <mxPoint x="640" y="-730" as="targetPoint" />
          </mxGeometry>
        </mxCell>
        <mxCell id="WIyWlLk6GJQsqaUBKTNV-7" value="Basic Search" style="rounded=1;whiteSpace=wrap;html=1;fontSize=12;glass=0;strokeWidth=1;shadow=0;fillColor=#d5e8d4;strokeColor=#82b366;" parent="WIyWlLk6GJQsqaUBKTNV-1" vertex="1">
          <mxGeometry x="440" y="-750" width="120" height="40" as="geometry" />
        </mxCell>
        <mxCell id="0FU5Pp-i_h0f7p2sPTCY-8" value="" style="edgeStyle=orthogonalEdgeStyle;rounded=0;orthogonalLoop=1;jettySize=auto;html=1;entryX=0;entryY=0.5;entryDx=0;entryDy=0;fillColor=#d5e8d4;strokeColor=#82b366;" parent="WIyWlLk6GJQsqaUBKTNV-1" source="WIyWlLk6GJQsqaUBKTNV-12" target="0FU5Pp-i_h0f7p2sPTCY-9" edge="1">
          <mxGeometry relative="1" as="geometry">
            <mxPoint x="640" y="-510" as="targetPoint" />
          </mxGeometry>
        </mxCell>
        <mxCell id="WIyWlLk6GJQsqaUBKTNV-12" value="Advanced Search" style="rounded=1;whiteSpace=wrap;html=1;fontSize=12;glass=0;strokeWidth=1;shadow=0;fillColor=#d5e8d4;strokeColor=#82b366;" parent="WIyWlLk6GJQsqaUBKTNV-1" vertex="1">
          <mxGeometry x="440" y="-530" width="120" height="40" as="geometry" />
        </mxCell>
        <mxCell id="0FU5Pp-i_h0f7p2sPTCY-5" value="" style="edgeStyle=orthogonalEdgeStyle;rounded=0;orthogonalLoop=1;jettySize=auto;html=1;entryX=0;entryY=0.5;entryDx=0;entryDy=0;fillColor=#d5e8d4;strokeColor=#82b366;" parent="WIyWlLk6GJQsqaUBKTNV-1" source="0FU5Pp-i_h0f7p2sPTCY-3" target="0FU5Pp-i_h0f7p2sPTCY-6" edge="1">
          <mxGeometry relative="1" as="geometry">
            <mxPoint x="840" y="-730" as="targetPoint" />
          </mxGeometry>
        </mxCell>
        <mxCell id="0FU5Pp-i_h0f7p2sPTCY-3" value="Enter Keyword" style="rounded=1;whiteSpace=wrap;html=1;fontSize=12;glass=0;strokeWidth=1;shadow=0;fillColor=#d5e8d4;strokeColor=#82b366;" parent="WIyWlLk6GJQsqaUBKTNV-1" vertex="1">
          <mxGeometry x="640" y="-750" width="120" height="40" as="geometry" />
        </mxCell>
        <mxCell id="0FU5Pp-i_h0f7p2sPTCY-13" style="edgeStyle=orthogonalEdgeStyle;rounded=0;orthogonalLoop=1;jettySize=auto;html=1;entryX=0;entryY=0.5;entryDx=0;entryDy=0;fillColor=#d5e8d4;strokeColor=#82b366;" parent="WIyWlLk6GJQsqaUBKTNV-1" source="0FU5Pp-i_h0f7p2sPTCY-6" target="0FU5Pp-i_h0f7p2sPTCY-12" edge="1">
          <mxGeometry relative="1" as="geometry" />
        </mxCell>
        <mxCell id="0FU5Pp-i_h0f7p2sPTCY-6" value="Results show in autocomplete" style="rounded=1;whiteSpace=wrap;html=1;fontSize=12;glass=0;strokeWidth=1;shadow=0;fillColor=#d5e8d4;strokeColor=#82b366;" parent="WIyWlLk6GJQsqaUBKTNV-1" vertex="1">
          <mxGeometry x="840" y="-750" width="120" height="40" as="geometry" />
        </mxCell>
        <mxCell id="0FU5Pp-i_h0f7p2sPTCY-10" style="edgeStyle=orthogonalEdgeStyle;rounded=0;orthogonalLoop=1;jettySize=auto;html=1;entryX=0;entryY=0.5;entryDx=0;entryDy=0;fillColor=#d5e8d4;strokeColor=#82b366;" parent="WIyWlLk6GJQsqaUBKTNV-1" source="0FU5Pp-i_h0f7p2sPTCY-9" target="0FU5Pp-i_h0f7p2sPTCY-11" edge="1">
          <mxGeometry relative="1" as="geometry">
            <mxPoint x="840" y="-510" as="targetPoint" />
          </mxGeometry>
        </mxCell>
        <mxCell id="0FU5Pp-i_h0f7p2sPTCY-9" value="Keyword and Filter" style="rounded=1;whiteSpace=wrap;html=1;fontSize=12;glass=0;strokeWidth=1;shadow=0;fillColor=#d5e8d4;strokeColor=#82b366;" parent="WIyWlLk6GJQsqaUBKTNV-1" vertex="1">
          <mxGeometry x="640" y="-530" width="120" height="40" as="geometry" />
        </mxCell>
        <mxCell id="0FU5Pp-i_h0f7p2sPTCY-14" style="edgeStyle=orthogonalEdgeStyle;rounded=0;orthogonalLoop=1;jettySize=auto;html=1;entryX=0;entryY=0.5;entryDx=0;entryDy=0;fillColor=#d5e8d4;strokeColor=#82b366;" parent="WIyWlLk6GJQsqaUBKTNV-1" source="0FU5Pp-i_h0f7p2sPTCY-11" target="0FU5Pp-i_h0f7p2sPTCY-12" edge="1">
          <mxGeometry relative="1" as="geometry" />
        </mxCell>
        <mxCell id="0FU5Pp-i_h0f7p2sPTCY-11" value="Result Table" style="rounded=1;whiteSpace=wrap;html=1;fontSize=12;glass=0;strokeWidth=1;shadow=0;fillColor=#d5e8d4;strokeColor=#82b366;" parent="WIyWlLk6GJQsqaUBKTNV-1" vertex="1">
          <mxGeometry x="840" y="-530" width="120" height="40" as="geometry" />
        </mxCell>
        <mxCell id="0FU5Pp-i_h0f7p2sPTCY-16" style="edgeStyle=orthogonalEdgeStyle;rounded=0;orthogonalLoop=1;jettySize=auto;html=1;entryX=0;entryY=0.5;entryDx=0;entryDy=0;fontSize=12;fillColor=#dae8fc;strokeColor=#6c8ebf;" parent="WIyWlLk6GJQsqaUBKTNV-1" source="0FU5Pp-i_h0f7p2sPTCY-12" target="0FU5Pp-i_h0f7p2sPTCY-15" edge="1">
          <mxGeometry relative="1" as="geometry">
            <Array as="points">
              <mxPoint x="1080" y="-620" />
              <mxPoint x="1080" y="-730" />
            </Array>
          </mxGeometry>
        </mxCell>
        <mxCell id="0FU5Pp-i_h0f7p2sPTCY-17" value="Yes" style="edgeLabel;html=1;align=center;verticalAlign=middle;resizable=0;points=[];fontSize=12;" parent="0FU5Pp-i_h0f7p2sPTCY-16" vertex="1" connectable="0">
          <mxGeometry x="-0.4573" relative="1" as="geometry">
            <mxPoint as="offset" />
          </mxGeometry>
        </mxCell>
        <mxCell id="0FU5Pp-i_h0f7p2sPTCY-12" value="Plot graph from ONE node?" style="rhombus;whiteSpace=wrap;html=1;shadow=0;fontFamily=Helvetica;fontSize=12;align=center;strokeWidth=1;spacing=6;spacingTop=-4;fillColor=#dae8fc;strokeColor=#6c8ebf;" parent="WIyWlLk6GJQsqaUBKTNV-1" vertex="1">
          <mxGeometry x="1030" y="-660" width="100" height="80" as="geometry" />
        </mxCell>
        <mxCell id="0FU5Pp-i_h0f7p2sPTCY-23" style="edgeStyle=orthogonalEdgeStyle;rounded=0;orthogonalLoop=1;jettySize=auto;html=1;exitX=1;exitY=0.5;exitDx=0;exitDy=0;entryX=-0.004;entryY=0.466;entryDx=0;entryDy=0;entryPerimeter=0;fillColor=#dae8fc;strokeColor=#6c8ebf;" parent="WIyWlLk6GJQsqaUBKTNV-1" source="0FU5Pp-i_h0f7p2sPTCY-15" target="0FU5Pp-i_h0f7p2sPTCY-55" edge="1">
          <mxGeometry relative="1" as="geometry">
            <mxPoint x="1340" y="-730" as="targetPoint" />
          </mxGeometry>
        </mxCell>
        <mxCell id="0FU5Pp-i_h0f7p2sPTCY-15" value="Click &quot;Start Plotting&quot;" style="rounded=1;whiteSpace=wrap;html=1;fontSize=12;glass=0;strokeWidth=1;shadow=0;fillColor=#dae8fc;strokeColor=#6c8ebf;" parent="WIyWlLk6GJQsqaUBKTNV-1" vertex="1">
          <mxGeometry x="1290" y="-750" width="120" height="40" as="geometry" />
        </mxCell>
        <mxCell id="0FU5Pp-i_h0f7p2sPTCY-34" style="edgeStyle=orthogonalEdgeStyle;rounded=0;orthogonalLoop=1;jettySize=auto;html=1;entryX=0;entryY=0.5;entryDx=0;entryDy=0;fontSize=12;fillColor=#dae8fc;strokeColor=#6c8ebf;" parent="WIyWlLk6GJQsqaUBKTNV-1" source="0FU5Pp-i_h0f7p2sPTCY-30" target="0FU5Pp-i_h0f7p2sPTCY-33" edge="1">
          <mxGeometry relative="1" as="geometry" />
        </mxCell>
        <mxCell id="0FU5Pp-i_h0f7p2sPTCY-30" value="Add nodes to Selected List" style="rounded=1;whiteSpace=wrap;html=1;fontSize=12;glass=0;strokeWidth=1;shadow=0;fillColor=#dae8fc;strokeColor=#6c8ebf;" parent="WIyWlLk6GJQsqaUBKTNV-1" vertex="1">
          <mxGeometry x="1121" y="-530" width="120" height="40" as="geometry" />
        </mxCell>
        <mxCell id="0FU5Pp-i_h0f7p2sPTCY-31" style="edgeStyle=orthogonalEdgeStyle;rounded=0;orthogonalLoop=1;jettySize=auto;html=1;exitX=0.5;exitY=1;exitDx=0;exitDy=0;entryX=0;entryY=0.5;entryDx=0;entryDy=0;fontSize=12;fillColor=#dae8fc;strokeColor=#6c8ebf;" parent="WIyWlLk6GJQsqaUBKTNV-1" source="0FU5Pp-i_h0f7p2sPTCY-12" target="0FU5Pp-i_h0f7p2sPTCY-30" edge="1">
          <mxGeometry relative="1" as="geometry">
            <mxPoint x="1080.034482758621" y="-444.97241379310344" as="sourcePoint" />
            <mxPoint x="1121" y="-515" as="targetPoint" />
            <Array as="points">
              <mxPoint x="1080" y="-510" />
            </Array>
          </mxGeometry>
        </mxCell>
        <mxCell id="0FU5Pp-i_h0f7p2sPTCY-32" value="No" style="edgeLabel;html=1;align=center;verticalAlign=middle;resizable=0;points=[];fontSize=12;" parent="0FU5Pp-i_h0f7p2sPTCY-31" vertex="1" connectable="0">
          <mxGeometry x="-0.4573" relative="1" as="geometry">
            <mxPoint as="offset" />
          </mxGeometry>
        </mxCell>
        <mxCell id="0FU5Pp-i_h0f7p2sPTCY-35" style="edgeStyle=orthogonalEdgeStyle;rounded=0;orthogonalLoop=1;jettySize=auto;html=1;entryX=0.5;entryY=1;entryDx=0;entryDy=0;dashed=1;fontSize=12;fillColor=#dae8fc;strokeColor=#6c8ebf;" parent="WIyWlLk6GJQsqaUBKTNV-1" source="0FU5Pp-i_h0f7p2sPTCY-33" target="0FU5Pp-i_h0f7p2sPTCY-15" edge="1">
          <mxGeometry relative="1" as="geometry">
            <Array as="points">
              <mxPoint x="1350" y="-660" />
              <mxPoint x="1350" y="-660" />
            </Array>
          </mxGeometry>
        </mxCell>
        <mxCell id="0FU5Pp-i_h0f7p2sPTCY-36" value="Hover on one item in Selected List" style="edgeLabel;html=1;align=center;verticalAlign=middle;resizable=0;points=[];fontSize=12;" parent="0FU5Pp-i_h0f7p2sPTCY-35" vertex="1" connectable="0">
          <mxGeometry x="0.0348" y="1" relative="1" as="geometry">
            <mxPoint as="offset" />
          </mxGeometry>
        </mxCell>
        <mxCell id="0FU5Pp-i_h0f7p2sPTCY-86" style="edgeStyle=orthogonalEdgeStyle;rounded=0;orthogonalLoop=1;jettySize=auto;html=1;entryX=0;entryY=0.5;entryDx=0;entryDy=0;fillColor=#dae8fc;strokeColor=#6c8ebf;" parent="WIyWlLk6GJQsqaUBKTNV-1" source="0FU5Pp-i_h0f7p2sPTCY-33" target="0FU5Pp-i_h0f7p2sPTCY-74" edge="1">
          <mxGeometry relative="1" as="geometry" />
        </mxCell>
        <mxCell id="0FU5Pp-i_h0f7p2sPTCY-33" value="Click &quot;Plotting Nodes&quot;" style="rounded=1;whiteSpace=wrap;html=1;fontSize=12;glass=0;strokeWidth=1;shadow=0;fillColor=#dae8fc;strokeColor=#6c8ebf;" parent="WIyWlLk6GJQsqaUBKTNV-1" vertex="1">
          <mxGeometry x="1290" y="-530" width="120" height="40" as="geometry" />
        </mxCell>
        <mxCell id="0FU5Pp-i_h0f7p2sPTCY-99" style="edgeStyle=orthogonalEdgeStyle;rounded=0;orthogonalLoop=1;jettySize=auto;html=1;entryX=0;entryY=0.5;entryDx=0;entryDy=0;fillColor=#dae8fc;strokeColor=#6c8ebf;" parent="WIyWlLk6GJQsqaUBKTNV-1" source="0FU5Pp-i_h0f7p2sPTCY-55" target="0FU5Pp-i_h0f7p2sPTCY-94" edge="1">
          <mxGeometry relative="1" as="geometry">
            <Array as="points">
              <mxPoint x="2105" y="-800" />
              <mxPoint x="2105" y="-620" />
            </Array>
          </mxGeometry>
        </mxCell>
        <mxCell id="0FU5Pp-i_h0f7p2sPTCY-55" value="One Node" style="swimlane;html=1;startSize=20;horizontal=1;childLayout=treeLayout;horizontalTree=1;resizable=0;containerType=tree;rounded=1;shadow=0;glass=0;strokeWidth=1;noLabel=0;portConstraintRotation=0;backgroundOutline=0;fillColor=#dae8fc;strokeColor=#6c8ebf;" parent="WIyWlLk6GJQsqaUBKTNV-1" vertex="1">
          <mxGeometry x="1510" y="-990" width="520" height="400" as="geometry">
            <mxRectangle x="1520" y="-190" width="30" height="150" as="alternateBounds" />
          </mxGeometry>
        </mxCell>
        <mxCell id="0FU5Pp-i_h0f7p2sPTCY-63" style="edgeStyle=orthogonalEdgeStyle;rounded=0;orthogonalLoop=1;jettySize=auto;html=1;entryX=0;entryY=0.5;entryDx=0;entryDy=0;fillColor=#dae8fc;strokeColor=#6c8ebf;" parent="0FU5Pp-i_h0f7p2sPTCY-55" source="0FU5Pp-i_h0f7p2sPTCY-61" target="0FU5Pp-i_h0f7p2sPTCY-62" edge="1">
          <mxGeometry relative="1" as="geometry" />
        </mxCell>
        <mxCell id="0FU5Pp-i_h0f7p2sPTCY-61" value="Dashboard" style="rounded=1;whiteSpace=wrap;html=1;fontSize=12;glass=0;strokeWidth=1;shadow=0;fillColor=#dae8fc;strokeColor=#6c8ebf;" parent="0FU5Pp-i_h0f7p2sPTCY-55" vertex="1">
          <mxGeometry x="40" y="180" width="120" height="40" as="geometry" />
        </mxCell>
        <mxCell id="0FU5Pp-i_h0f7p2sPTCY-62" value="1st Degree Expand" style="rounded=1;whiteSpace=wrap;html=1;fontSize=12;glass=0;strokeWidth=1;shadow=0;fillColor=#dae8fc;strokeColor=#6c8ebf;" parent="0FU5Pp-i_h0f7p2sPTCY-55" vertex="1">
          <mxGeometry x="210" y="30" width="120" height="40" as="geometry" />
        </mxCell>
        <mxCell id="0FU5Pp-i_h0f7p2sPTCY-64" value="2nd Degree Connections" style="rounded=1;whiteSpace=wrap;html=1;fontSize=12;glass=0;strokeWidth=1;shadow=0;fillColor=#dae8fc;strokeColor=#6c8ebf;" parent="0FU5Pp-i_h0f7p2sPTCY-55" vertex="1">
          <mxGeometry x="210" y="110" width="120" height="40" as="geometry" />
        </mxCell>
        <mxCell id="0FU5Pp-i_h0f7p2sPTCY-65" style="edgeStyle=orthogonalEdgeStyle;rounded=0;orthogonalLoop=1;jettySize=auto;html=1;entryX=0;entryY=0.5;entryDx=0;entryDy=0;fillColor=#dae8fc;strokeColor=#6c8ebf;" parent="0FU5Pp-i_h0f7p2sPTCY-55" source="0FU5Pp-i_h0f7p2sPTCY-61" target="0FU5Pp-i_h0f7p2sPTCY-64" edge="1">
          <mxGeometry relative="1" as="geometry">
            <mxPoint x="160" y="-576" as="sourcePoint" />
            <mxPoint x="210" y="-576" as="targetPoint" />
          </mxGeometry>
        </mxCell>
        <mxCell id="0FU5Pp-i_h0f7p2sPTCY-66" value="Ownership Search" style="rounded=1;whiteSpace=wrap;html=1;fontSize=12;glass=0;strokeWidth=1;shadow=0;fillColor=#dae8fc;strokeColor=#6c8ebf;" parent="0FU5Pp-i_h0f7p2sPTCY-55" vertex="1">
          <mxGeometry x="210" y="190" width="120" height="40" as="geometry" />
        </mxCell>
        <mxCell id="0FU5Pp-i_h0f7p2sPTCY-67" style="edgeStyle=orthogonalEdgeStyle;rounded=0;orthogonalLoop=1;jettySize=auto;html=1;entryX=0;entryY=0.5;entryDx=0;entryDy=0;fillColor=#dae8fc;strokeColor=#6c8ebf;" parent="0FU5Pp-i_h0f7p2sPTCY-55" source="0FU5Pp-i_h0f7p2sPTCY-61" target="0FU5Pp-i_h0f7p2sPTCY-66" edge="1">
          <mxGeometry relative="1" as="geometry">
            <mxPoint x="160" y="-536" as="sourcePoint" />
            <mxPoint x="210" y="-496" as="targetPoint" />
          </mxGeometry>
        </mxCell>
        <mxCell id="0FU5Pp-i_h0f7p2sPTCY-68" value="Indirect Risk Search" style="rounded=1;whiteSpace=wrap;html=1;fontSize=12;glass=0;strokeWidth=1;shadow=0;fillColor=#dae8fc;strokeColor=#6c8ebf;" parent="0FU5Pp-i_h0f7p2sPTCY-55" vertex="1">
          <mxGeometry x="210" y="270" width="120" height="40" as="geometry" />
        </mxCell>
        <mxCell id="0FU5Pp-i_h0f7p2sPTCY-69" style="edgeStyle=orthogonalEdgeStyle;rounded=0;orthogonalLoop=1;jettySize=auto;html=1;entryX=0;entryY=0.5;entryDx=0;entryDy=0;fillColor=#dae8fc;strokeColor=#6c8ebf;" parent="0FU5Pp-i_h0f7p2sPTCY-55" source="0FU5Pp-i_h0f7p2sPTCY-61" target="0FU5Pp-i_h0f7p2sPTCY-68" edge="1">
          <mxGeometry relative="1" as="geometry">
            <mxPoint x="160" y="-456" as="sourcePoint" />
            <mxPoint x="210" y="-376" as="targetPoint" />
          </mxGeometry>
        </mxCell>
        <mxCell id="0FU5Pp-i_h0f7p2sPTCY-72" style="edgeStyle=orthogonalEdgeStyle;rounded=0;orthogonalLoop=1;jettySize=auto;html=1;entryX=0;entryY=0.5;entryDx=0;entryDy=0;fillColor=#dae8fc;strokeColor=#6c8ebf;" parent="0FU5Pp-i_h0f7p2sPTCY-55" source="0FU5Pp-i_h0f7p2sPTCY-62" target="0FU5Pp-i_h0f7p2sPTCY-73" edge="1">
          <mxGeometry relative="1" as="geometry">
            <mxPoint x="1530" y="-446" as="sourcePoint" />
          </mxGeometry>
        </mxCell>
        <mxCell id="0FU5Pp-i_h0f7p2sPTCY-73" value="Popup-Select Neighbors" style="rounded=1;whiteSpace=wrap;html=1;fontSize=12;glass=0;strokeWidth=1;shadow=0;fillColor=#dae8fc;strokeColor=#6c8ebf;" parent="0FU5Pp-i_h0f7p2sPTCY-55" vertex="1">
          <mxGeometry x="380" y="30" width="120" height="40" as="geometry" />
        </mxCell>
        <mxCell id="0FU5Pp-i_h0f7p2sPTCY-92" style="edgeStyle=orthogonalEdgeStyle;rounded=0;orthogonalLoop=1;jettySize=auto;html=1;entryX=0;entryY=0.5;entryDx=0;entryDy=0;fillColor=#dae8fc;strokeColor=#6c8ebf;" parent="0FU5Pp-i_h0f7p2sPTCY-55" source="0FU5Pp-i_h0f7p2sPTCY-68" target="0FU5Pp-i_h0f7p2sPTCY-93" edge="1">
          <mxGeometry relative="1" as="geometry">
            <mxPoint x="1670" y="-110" as="sourcePoint" />
            <mxPoint x="210" y="-376" as="targetPoint" />
          </mxGeometry>
        </mxCell>
        <mxCell id="0FU5Pp-i_h0f7p2sPTCY-93" value="Choose against watchlist/event type" style="rounded=1;whiteSpace=wrap;html=1;fontSize=12;glass=0;strokeWidth=1;shadow=0;fillColor=#dae8fc;strokeColor=#6c8ebf;" parent="0FU5Pp-i_h0f7p2sPTCY-55" vertex="1">
          <mxGeometry x="380" y="270" width="120" height="40" as="geometry" />
        </mxCell>
        <mxCell id="0FU5Pp-i_h0f7p2sPTCY-119" style="edgeStyle=orthogonalEdgeStyle;rounded=0;orthogonalLoop=1;jettySize=auto;html=1;entryX=0;entryY=0.5;entryDx=0;entryDy=0;fillColor=#dae8fc;strokeColor=#6c8ebf;" parent="0FU5Pp-i_h0f7p2sPTCY-55" source="0FU5Pp-i_h0f7p2sPTCY-61" target="0FU5Pp-i_h0f7p2sPTCY-120" edge="1">
          <mxGeometry relative="1" as="geometry">
            <mxPoint x="1670" y="-830" as="sourcePoint" />
            <mxPoint x="210" y="-376" as="targetPoint" />
          </mxGeometry>
        </mxCell>
        <mxCell id="0FU5Pp-i_h0f7p2sPTCY-120" value="Add to Graph" style="rounded=1;whiteSpace=wrap;html=1;fontSize=12;glass=0;strokeWidth=1;shadow=0;fillColor=#dae8fc;strokeColor=#6c8ebf;" parent="0FU5Pp-i_h0f7p2sPTCY-55" vertex="1">
          <mxGeometry x="210" y="350" width="120" height="40" as="geometry" />
        </mxCell>
        <mxCell id="0FU5Pp-i_h0f7p2sPTCY-100" style="edgeStyle=orthogonalEdgeStyle;rounded=0;orthogonalLoop=1;jettySize=auto;html=1;entryX=0;entryY=0.5;entryDx=0;entryDy=0;fillColor=#dae8fc;strokeColor=#6c8ebf;" parent="WIyWlLk6GJQsqaUBKTNV-1" source="0FU5Pp-i_h0f7p2sPTCY-74" target="0FU5Pp-i_h0f7p2sPTCY-94" edge="1">
          <mxGeometry relative="1" as="geometry" />
        </mxCell>
        <mxCell id="0FU5Pp-i_h0f7p2sPTCY-74" value="Multiple Nodes" style="swimlane;html=1;startSize=20;horizontal=1;childLayout=treeLayout;horizontalTree=1;resizable=0;containerType=tree;rounded=1;shadow=0;glass=0;strokeWidth=1;arcSize=12;fillColor=#dae8fc;strokeColor=#6c8ebf;" parent="WIyWlLk6GJQsqaUBKTNV-1" vertex="1">
          <mxGeometry x="1510" y="-570" width="520" height="400" as="geometry">
            <mxRectangle x="1520" y="-190" width="30" height="150" as="alternateBounds" />
          </mxGeometry>
        </mxCell>
        <mxCell id="0FU5Pp-i_h0f7p2sPTCY-75" style="edgeStyle=orthogonalEdgeStyle;rounded=0;orthogonalLoop=1;jettySize=auto;html=1;entryX=0;entryY=0.5;entryDx=0;entryDy=0;fillColor=#dae8fc;strokeColor=#6c8ebf;" parent="0FU5Pp-i_h0f7p2sPTCY-74" source="0FU5Pp-i_h0f7p2sPTCY-76" target="0FU5Pp-i_h0f7p2sPTCY-77" edge="1">
          <mxGeometry relative="1" as="geometry" />
        </mxCell>
        <mxCell id="0FU5Pp-i_h0f7p2sPTCY-121" style="edgeStyle=orthogonalEdgeStyle;rounded=0;orthogonalLoop=1;jettySize=auto;html=1;entryX=0;entryY=0.5;entryDx=0;entryDy=0;fillColor=#dae8fc;strokeColor=#6c8ebf;" parent="0FU5Pp-i_h0f7p2sPTCY-74" source="0FU5Pp-i_h0f7p2sPTCY-76" target="0FU5Pp-i_h0f7p2sPTCY-82" edge="1">
          <mxGeometry relative="1" as="geometry" />
        </mxCell>
        <mxCell id="0FU5Pp-i_h0f7p2sPTCY-76" value="Dashboard" style="rounded=1;whiteSpace=wrap;html=1;fontSize=12;glass=0;strokeWidth=1;shadow=0;fillColor=#dae8fc;strokeColor=#6c8ebf;" parent="0FU5Pp-i_h0f7p2sPTCY-74" vertex="1">
          <mxGeometry x="40" y="180" width="120" height="40" as="geometry" />
        </mxCell>
        <mxCell id="0FU5Pp-i_h0f7p2sPTCY-77" value="Add to Graph" style="rounded=1;whiteSpace=wrap;html=1;fontSize=12;glass=0;strokeWidth=1;shadow=0;fillColor=#dae8fc;strokeColor=#6c8ebf;" parent="0FU5Pp-i_h0f7p2sPTCY-74" vertex="1">
          <mxGeometry x="210" y="50" width="120" height="40" as="geometry" />
        </mxCell>
        <mxCell id="0FU5Pp-i_h0f7p2sPTCY-80" value="Find the shortest path" style="rounded=1;whiteSpace=wrap;html=1;fontSize=12;glass=0;strokeWidth=1;shadow=0;fillColor=#dae8fc;strokeColor=#6c8ebf;" parent="0FU5Pp-i_h0f7p2sPTCY-74" vertex="1">
          <mxGeometry x="210" y="130" width="120" height="40" as="geometry" />
        </mxCell>
        <mxCell id="0FU5Pp-i_h0f7p2sPTCY-81" style="edgeStyle=orthogonalEdgeStyle;rounded=0;orthogonalLoop=1;jettySize=auto;html=1;entryX=0;entryY=0.5;entryDx=0;entryDy=0;fillColor=#dae8fc;strokeColor=#6c8ebf;" parent="0FU5Pp-i_h0f7p2sPTCY-74" source="0FU5Pp-i_h0f7p2sPTCY-76" target="0FU5Pp-i_h0f7p2sPTCY-80" edge="1">
          <mxGeometry relative="1" as="geometry">
            <mxPoint x="160" y="-200" as="sourcePoint" />
            <mxPoint x="210" y="-160" as="targetPoint" />
          </mxGeometry>
        </mxCell>
        <mxCell id="0FU5Pp-i_h0f7p2sPTCY-82" value="Create Network" style="rounded=1;whiteSpace=wrap;html=1;fontSize=12;glass=0;strokeWidth=1;shadow=0;fillColor=#dae8fc;strokeColor=#6c8ebf;" parent="0FU5Pp-i_h0f7p2sPTCY-74" vertex="1">
          <mxGeometry x="210" y="230" width="120" height="40" as="geometry" />
        </mxCell>
        <mxCell id="0FU5Pp-i_h0f7p2sPTCY-95" style="edgeStyle=orthogonalEdgeStyle;rounded=0;orthogonalLoop=1;jettySize=auto;html=1;entryX=0;entryY=0.5;entryDx=0;entryDy=0;fillColor=#dae8fc;strokeColor=#6c8ebf;" parent="0FU5Pp-i_h0f7p2sPTCY-74" source="0FU5Pp-i_h0f7p2sPTCY-80" target="0FU5Pp-i_h0f7p2sPTCY-96" edge="1">
          <mxGeometry relative="1" as="geometry">
            <mxPoint x="1670" y="-424" as="sourcePoint" />
            <mxPoint x="210" y="-160" as="targetPoint" />
          </mxGeometry>
        </mxCell>
        <mxCell id="0FU5Pp-i_h0f7p2sPTCY-96" value="Popup-Choose relation types" style="rounded=1;whiteSpace=wrap;html=1;fontSize=12;glass=0;strokeWidth=1;shadow=0;fillColor=#dae8fc;strokeColor=#6c8ebf;" parent="0FU5Pp-i_h0f7p2sPTCY-74" vertex="1">
          <mxGeometry x="380" y="130" width="120" height="40" as="geometry" />
        </mxCell>
        <mxCell id="0FU5Pp-i_h0f7p2sPTCY-97" style="edgeStyle=orthogonalEdgeStyle;rounded=0;orthogonalLoop=1;jettySize=auto;html=1;entryX=0;entryY=0.5;entryDx=0;entryDy=0;fillColor=#dae8fc;strokeColor=#6c8ebf;" parent="0FU5Pp-i_h0f7p2sPTCY-74" source="0FU5Pp-i_h0f7p2sPTCY-82" target="0FU5Pp-i_h0f7p2sPTCY-98" edge="1">
          <mxGeometry relative="1" as="geometry">
            <mxPoint x="1670" y="-424" as="sourcePoint" />
            <mxPoint x="210" y="-40" as="targetPoint" />
          </mxGeometry>
        </mxCell>
        <mxCell id="0FU5Pp-i_h0f7p2sPTCY-98" value="Popup-Choose relation types" style="rounded=1;whiteSpace=wrap;html=1;fontSize=12;glass=0;strokeWidth=1;shadow=0;fillColor=#dae8fc;strokeColor=#6c8ebf;" parent="0FU5Pp-i_h0f7p2sPTCY-74" vertex="1">
          <mxGeometry x="380" y="230" width="120" height="40" as="geometry" />
        </mxCell>
        <mxCell id="0FU5Pp-i_h0f7p2sPTCY-109" style="edgeStyle=orthogonalEdgeStyle;rounded=0;orthogonalLoop=1;jettySize=auto;html=1;entryX=0;entryY=0.5;entryDx=0;entryDy=0;fillColor=#dae8fc;strokeColor=#6c8ebf;" parent="0FU5Pp-i_h0f7p2sPTCY-74" source="0FU5Pp-i_h0f7p2sPTCY-76" target="0FU5Pp-i_h0f7p2sPTCY-110" edge="1">
          <mxGeometry relative="1" as="geometry">
            <mxPoint x="1670" y="-424" as="sourcePoint" />
            <mxPoint x="210" y="-40" as="targetPoint" />
          </mxGeometry>
        </mxCell>
        <mxCell id="0FU5Pp-i_h0f7p2sPTCY-110" value="...." style="rounded=1;whiteSpace=wrap;html=1;fontSize=12;glass=0;strokeWidth=1;shadow=0;fillColor=#dae8fc;strokeColor=#6c8ebf;" parent="0FU5Pp-i_h0f7p2sPTCY-74" vertex="1">
          <mxGeometry x="210" y="330" width="120" height="40" as="geometry" />
        </mxCell>
        <mxCell id="0FU5Pp-i_h0f7p2sPTCY-102" value="" style="edgeStyle=orthogonalEdgeStyle;rounded=0;orthogonalLoop=1;jettySize=auto;html=1;dashed=1;fillColor=#e1d5e7;strokeColor=#9673a6;" parent="WIyWlLk6GJQsqaUBKTNV-1" source="0FU5Pp-i_h0f7p2sPTCY-94" edge="1">
          <mxGeometry relative="1" as="geometry">
            <mxPoint x="2240" y="-520" as="targetPoint" />
          </mxGeometry>
        </mxCell>
        <mxCell id="0FU5Pp-i_h0f7p2sPTCY-94" value="Plot on Graph" style="rounded=1;whiteSpace=wrap;html=1;fontSize=12;glass=0;strokeWidth=1;shadow=0;arcSize=50;fillColor=#e1d5e7;strokeColor=#9673a6;" parent="WIyWlLk6GJQsqaUBKTNV-1" vertex="1">
          <mxGeometry x="2180" y="-640" width="120" height="40" as="geometry" />
        </mxCell>
        <mxCell id="0FU5Pp-i_h0f7p2sPTCY-106" style="edgeStyle=orthogonalEdgeStyle;rounded=0;orthogonalLoop=1;jettySize=auto;html=1;dashed=1;fillColor=#e1d5e7;strokeColor=#9673a6;" parent="WIyWlLk6GJQsqaUBKTNV-1" source="0FU5Pp-i_h0f7p2sPTCY-105" edge="1">
          <mxGeometry relative="1" as="geometry">
            <mxPoint x="310" y="-620" as="targetPoint" />
            <Array as="points">
              <mxPoint x="2240" y="-120" />
              <mxPoint x="310" y="-120" />
            </Array>
          </mxGeometry>
        </mxCell>
        <mxCell id="0FU5Pp-i_h0f7p2sPTCY-105" value="Click &quot;Search&quot; tab" style="rounded=1;whiteSpace=wrap;html=1;fontSize=12;glass=0;strokeWidth=1;shadow=0;fillColor=#e1d5e7;strokeColor=#9673a6;" parent="WIyWlLk6GJQsqaUBKTNV-1" vertex="1">
          <mxGeometry x="2180" y="-520" width="120" height="40" as="geometry" />
        </mxCell>
        <mxCell id="GJe0f6TZO8kAj-utkbtk-4" style="edgeStyle=orthogonalEdgeStyle;rounded=0;orthogonalLoop=1;jettySize=auto;html=1;entryX=0;entryY=0.5;entryDx=0;entryDy=0;fontSize=12;fontColor=#7EA6E0;" edge="1" parent="WIyWlLk6GJQsqaUBKTNV-1" source="GJe0f6TZO8kAj-utkbtk-0" target="GJe0f6TZO8kAj-utkbtk-1">
          <mxGeometry relative="1" as="geometry" />
        </mxCell>
        <mxCell id="GJe0f6TZO8kAj-utkbtk-0" value="Login GekkoGraph" style="rounded=1;whiteSpace=wrap;html=1;fontSize=12;glass=0;strokeWidth=1;shadow=0;arcSize=50;fillColor=#e1d5e7;strokeColor=#9673a6;" vertex="1" parent="WIyWlLk6GJQsqaUBKTNV-1">
          <mxGeometry x="160" y="-1040" width="120" height="40" as="geometry" />
        </mxCell>
        <mxCell id="GJe0f6TZO8kAj-utkbtk-5" style="edgeStyle=orthogonalEdgeStyle;rounded=0;orthogonalLoop=1;jettySize=auto;html=1;entryX=0;entryY=0.5;entryDx=0;entryDy=0;fontSize=12;fontColor=#7EA6E0;" edge="1" parent="WIyWlLk6GJQsqaUBKTNV-1" source="GJe0f6TZO8kAj-utkbtk-1" target="GJe0f6TZO8kAj-utkbtk-2">
          <mxGeometry relative="1" as="geometry" />
        </mxCell>
        <mxCell id="GJe0f6TZO8kAj-utkbtk-1" value="Search &amp;amp; Select Node" style="rounded=1;whiteSpace=wrap;html=1;fontSize=12;glass=0;strokeWidth=1;shadow=0;fillColor=#d5e8d4;strokeColor=#82b366;" vertex="1" parent="WIyWlLk6GJQsqaUBKTNV-1">
          <mxGeometry x="320" y="-1040" width="130" height="40" as="geometry" />
        </mxCell>
        <mxCell id="GJe0f6TZO8kAj-utkbtk-6" style="edgeStyle=orthogonalEdgeStyle;rounded=0;orthogonalLoop=1;jettySize=auto;html=1;entryX=0;entryY=0.5;entryDx=0;entryDy=0;fontSize=12;fontColor=#7EA6E0;" edge="1" parent="WIyWlLk6GJQsqaUBKTNV-1" source="GJe0f6TZO8kAj-utkbtk-2" target="GJe0f6TZO8kAj-utkbtk-3">
          <mxGeometry relative="1" as="geometry" />
        </mxCell>
        <mxCell id="GJe0f6TZO8kAj-utkbtk-2" value="Choose Plot Method" style="rounded=1;whiteSpace=wrap;html=1;fontSize=12;glass=0;strokeWidth=1;shadow=0;fillColor=#dae8fc;strokeColor=#6c8ebf;" vertex="1" parent="WIyWlLk6GJQsqaUBKTNV-1">
          <mxGeometry x="490" y="-1040" width="120" height="40" as="geometry" />
        </mxCell>
        <mxCell id="GJe0f6TZO8kAj-utkbtk-3" value="Plot on Graph" style="rounded=1;whiteSpace=wrap;html=1;fontSize=12;glass=0;strokeWidth=1;shadow=0;arcSize=50;fillColor=#e1d5e7;strokeColor=#9673a6;" vertex="1" parent="WIyWlLk6GJQsqaUBKTNV-1">
          <mxGeometry x="660" y="-1040" width="120" height="40" as="geometry" />
        </mxCell>
      </root>
    </mxGraphModel>
  </diagram>
</mxfile>
